<svg xmlns="http://www.w3.org/2000/svg" xmlns:xlink="http://www.w3.org/1999/xlink" width="100" zoomAndPan="magnify" viewBox="0 0 75 74.999997" height="100" preserveAspectRatio="xMidYMid meet" version="1.0"><defs><clipPath id="id1"><path d="M 32 5.859375 L 43 5.859375 L 43 15 L 32 15 Z M 32 5.859375 " clip-rule="nonzero"/></clipPath><clipPath id="id2"><path d="M 32 59 L 43 59 L 43 68.859375 L 32 68.859375 Z M 32 59 " clip-rule="nonzero"/></clipPath></defs><path fill="rgb(98.039246%, 86.268616%, 7.839966%)" d="M 27.078125 33.390625 L 17.699219 33.390625 C 17.320312 33.390625 16.96875 33.1875 16.785156 32.855469 L 11.523438 23.363281 L 8.007812 23.363281 C 7.433594 23.363281 6.96875 22.898438 6.96875 22.324219 C 6.96875 21.753906 7.433594 21.289062 8.007812 21.289062 L 12.140625 21.289062 C 12.523438 21.289062 12.871094 21.492188 13.054688 21.824219 L 18.316406 31.316406 L 27.082031 31.316406 C 27.65625 31.316406 28.125 31.78125 28.125 32.355469 C 28.125 32.925781 27.652344 33.390625 27.078125 33.390625 Z M 27.078125 33.390625 " fill-opacity="1" fill-rule="nonzero"/><path fill="rgb(98.039246%, 86.268616%, 7.839966%)" d="M 12.140625 53.535156 L 8.007812 53.535156 C 7.433594 53.535156 6.96875 53.070312 6.96875 52.496094 C 6.96875 51.921875 7.433594 51.460938 8.007812 51.460938 L 11.523438 51.460938 L 16.785156 41.964844 C 16.96875 41.632812 17.320312 41.429688 17.703125 41.429688 L 27.078125 41.429688 C 27.652344 41.429688 28.121094 41.894531 28.121094 42.464844 C 28.121094 43.039062 27.652344 43.5 27.078125 43.5 L 18.316406 43.5 L 13.054688 53 C 12.871094 53.328125 12.523438 53.535156 12.140625 53.535156 Z M 12.140625 53.535156 " fill-opacity="1" fill-rule="nonzero"/><path fill="rgb(98.039246%, 86.268616%, 7.839966%)" d="M 29.160156 38.445312 L 8.007812 38.445312 C 7.433594 38.445312 6.96875 37.984375 6.96875 37.40625 C 6.96875 36.839844 7.433594 36.371094 8.007812 36.371094 L 29.160156 36.371094 C 29.738281 36.371094 30.203125 36.839844 30.203125 37.40625 C 30.203125 37.984375 29.738281 38.445312 29.160156 38.445312 Z M 29.160156 38.445312 " fill-opacity="1" fill-rule="nonzero"/><path fill="rgb(98.039246%, 86.268616%, 7.839966%)" d="M 57.300781 33.390625 L 47.921875 33.390625 C 47.347656 33.390625 46.878906 32.925781 46.878906 32.355469 C 46.878906 31.78125 47.347656 31.316406 47.921875 31.316406 L 56.6875 31.316406 L 61.949219 21.824219 C 62.128906 21.492188 62.476562 21.285156 62.859375 21.285156 L 66.988281 21.285156 C 67.5625 21.285156 68.027344 21.75 68.027344 22.324219 C 68.027344 22.894531 67.5625 23.359375 66.988281 23.359375 L 63.472656 23.359375 L 58.207031 32.851562 C 58.027344 33.1875 57.679688 33.390625 57.300781 33.390625 Z M 57.300781 33.390625 " fill-opacity="1" fill-rule="nonzero"/><path fill="rgb(98.039246%, 86.268616%, 7.839966%)" d="M 66.992188 53.535156 L 62.859375 53.535156 C 62.476562 53.535156 62.128906 53.328125 61.945312 53 L 56.683594 43.5 L 47.917969 43.5 C 47.34375 43.5 46.875 43.039062 46.875 42.464844 C 46.875 41.894531 47.34375 41.429688 47.917969 41.429688 L 57.296875 41.429688 C 57.675781 41.429688 58.023438 41.636719 58.207031 41.964844 L 63.472656 51.460938 L 66.988281 51.460938 C 67.5625 51.460938 68.027344 51.921875 68.027344 52.496094 C 68.03125 53.070312 67.566406 53.535156 66.992188 53.535156 Z M 66.992188 53.535156 " fill-opacity="1" fill-rule="nonzero"/><path fill="rgb(98.039246%, 86.268616%, 7.839966%)" d="M 66.992188 38.445312 L 45.839844 38.445312 C 45.261719 38.445312 44.796875 37.984375 44.796875 37.40625 C 44.796875 36.839844 45.261719 36.371094 45.839844 36.371094 L 66.992188 36.371094 C 67.566406 36.371094 68.03125 36.839844 68.03125 37.40625 C 68.03125 37.984375 67.566406 38.445312 66.992188 38.445312 Z M 66.992188 38.445312 " fill-opacity="1" fill-rule="nonzero"/><path fill="rgb(98.039246%, 86.268616%, 7.839966%)" d="M 37.5 26.589844 C 36.925781 26.589844 36.457031 26.125 36.457031 25.550781 L 36.457031 14.023438 C 36.457031 13.449219 36.925781 12.988281 37.5 12.988281 C 38.074219 12.988281 38.542969 13.449219 38.542969 14.023438 L 38.542969 25.550781 C 38.542969 26.125 38.074219 26.589844 37.5 26.589844 Z M 37.5 26.589844 " fill-opacity="1" fill-rule="nonzero"/><path fill="rgb(98.039246%, 86.268616%, 7.839966%)" d="M 37.5 61.832031 C 36.925781 61.832031 36.457031 61.367188 36.457031 60.792969 L 36.457031 49.265625 C 36.457031 48.695312 36.925781 48.230469 37.5 48.230469 C 38.074219 48.230469 38.542969 48.695312 38.542969 49.265625 L 38.542969 60.792969 C 38.542969 61.367188 38.074219 61.832031 37.5 61.832031 Z M 37.5 61.832031 " fill-opacity="1" fill-rule="nonzero"/><path fill="rgb(86.268616%, 54.899597%, 11.759949%)" d="M 4.839844 26.867188 C 2.324219 26.867188 0.277344 24.828125 0.277344 22.324219 C 0.277344 19.820312 2.324219 17.777344 4.839844 17.777344 C 7.351562 17.777344 9.398438 19.820312 9.398438 22.324219 C 9.398438 24.828125 7.351562 26.867188 4.839844 26.867188 Z M 4.839844 20.546875 C 3.855469 20.546875 3.054688 21.34375 3.054688 22.328125 C 3.054688 23.304688 3.855469 24.101562 4.839844 24.101562 C 5.820312 24.101562 6.621094 23.304688 6.621094 22.328125 C 6.621094 21.34375 5.820312 20.546875 4.839844 20.546875 Z M 4.839844 20.546875 " fill-opacity="1" fill-rule="nonzero"/><g clip-path="url(#id1)"><path fill="rgb(86.268616%, 54.899597%, 11.759949%)" d="M 37.5 14.945312 C 34.984375 14.945312 32.9375 12.90625 32.9375 10.402344 C 32.9375 7.898438 34.984375 5.859375 37.5 5.859375 C 40.015625 5.859375 42.0625 7.898438 42.0625 10.402344 C 42.0625 12.90625 40.015625 14.945312 37.5 14.945312 Z M 37.5 8.621094 C 36.519531 8.621094 35.714844 9.421875 35.714844 10.402344 C 35.714844 11.382812 36.519531 12.179688 37.5 12.179688 C 38.480469 12.179688 39.285156 11.382812 39.285156 10.402344 C 39.285156 9.421875 38.480469 8.621094 37.5 8.621094 Z M 37.5 8.621094 " fill-opacity="1" fill-rule="nonzero"/></g><g clip-path="url(#id2)"><path fill="rgb(86.268616%, 54.899597%, 11.759949%)" d="M 37.5 68.960938 C 34.984375 68.960938 32.9375 66.921875 32.9375 64.414062 C 32.9375 61.910156 34.984375 59.871094 37.5 59.871094 C 40.015625 59.871094 42.0625 61.910156 42.0625 64.414062 C 42.0625 66.921875 40.015625 68.960938 37.5 68.960938 Z M 37.5 62.644531 C 36.519531 62.644531 35.714844 63.441406 35.714844 64.417969 C 35.714844 65.398438 36.519531 66.195312 37.5 66.195312 C 38.480469 66.195312 39.285156 65.398438 39.285156 64.417969 C 39.285156 63.4375 38.480469 62.644531 37.5 62.644531 Z M 37.5 62.644531 " fill-opacity="1" fill-rule="nonzero"/></g><path fill="rgb(86.268616%, 54.899597%, 11.759949%)" d="M 4.839844 41.953125 C 2.324219 41.953125 0.277344 39.914062 0.277344 37.410156 C 0.277344 34.902344 2.324219 32.867188 4.839844 32.867188 C 7.351562 32.867188 9.398438 34.902344 9.398438 37.410156 C 9.398438 39.914062 7.351562 41.953125 4.839844 41.953125 Z M 4.839844 35.632812 C 3.855469 35.632812 3.054688 36.429688 3.054688 37.410156 C 3.054688 38.390625 3.855469 39.1875 4.839844 39.1875 C 5.820312 39.1875 6.621094 38.390625 6.621094 37.410156 C 6.621094 36.429688 5.820312 35.632812 4.839844 35.632812 Z M 4.839844 35.632812 " fill-opacity="1" fill-rule="nonzero"/><path fill="rgb(86.268616%, 54.899597%, 11.759949%)" d="M 4.839844 57.039062 C 2.324219 57.039062 0.277344 55 0.277344 52.496094 C 0.277344 49.992188 2.324219 47.953125 4.839844 47.953125 C 7.351562 47.953125 9.398438 49.992188 9.398438 52.496094 C 9.398438 55 7.351562 57.039062 4.839844 57.039062 Z M 4.839844 50.714844 C 3.855469 50.714844 3.054688 51.515625 3.054688 52.496094 C 3.054688 53.476562 3.855469 54.273438 4.839844 54.273438 C 5.820312 54.273438 6.621094 53.476562 6.621094 52.496094 C 6.621094 51.515625 5.820312 50.714844 4.839844 50.714844 Z M 4.839844 50.714844 " fill-opacity="1" fill-rule="nonzero"/><path fill="rgb(86.268616%, 54.899597%, 11.759949%)" d="M 70.160156 26.867188 C 67.648438 26.867188 65.601562 24.828125 65.601562 22.324219 C 65.601562 19.820312 67.648438 17.777344 70.160156 17.777344 C 72.675781 17.777344 74.722656 19.820312 74.722656 22.324219 C 74.722656 24.828125 72.675781 26.867188 70.160156 26.867188 Z M 70.160156 20.546875 C 69.179688 20.546875 68.378906 21.34375 68.378906 22.328125 C 68.378906 23.304688 69.179688 24.101562 70.160156 24.101562 C 71.144531 24.101562 71.945312 23.304688 71.945312 22.328125 C 71.945312 21.34375 71.144531 20.546875 70.160156 20.546875 Z M 70.160156 20.546875 " fill-opacity="1" fill-rule="nonzero"/><path fill="rgb(86.268616%, 54.899597%, 11.759949%)" d="M 70.160156 41.953125 C 67.648438 41.953125 65.601562 39.914062 65.601562 37.410156 C 65.601562 34.902344 67.648438 32.867188 70.160156 32.867188 C 72.675781 32.867188 74.722656 34.902344 74.722656 37.410156 C 74.722656 39.914062 72.675781 41.953125 70.160156 41.953125 Z M 70.160156 35.632812 C 69.179688 35.632812 68.378906 36.429688 68.378906 37.410156 C 68.378906 38.390625 69.179688 39.1875 70.160156 39.1875 C 71.144531 39.1875 71.945312 38.390625 71.945312 37.410156 C 71.945312 36.429688 71.144531 35.632812 70.160156 35.632812 Z M 70.160156 35.632812 " fill-opacity="1" fill-rule="nonzero"/><path fill="rgb(86.268616%, 54.899597%, 11.759949%)" d="M 70.160156 57.039062 C 67.648438 57.039062 65.601562 55 65.601562 52.496094 C 65.601562 49.992188 67.648438 47.953125 70.160156 47.953125 C 72.675781 47.953125 74.722656 49.992188 74.722656 52.496094 C 74.722656 55 72.675781 57.039062 70.160156 57.039062 Z M 70.160156 50.714844 C 69.179688 50.714844 68.378906 51.515625 68.378906 52.496094 C 68.378906 53.476562 69.179688 54.273438 70.160156 54.273438 C 71.144531 54.273438 71.945312 53.476562 71.945312 52.496094 C 71.945312 51.515625 71.144531 50.714844 70.160156 50.714844 Z M 70.160156 50.714844 " fill-opacity="1" fill-rule="nonzero"/><path fill="rgb(98.039246%, 60.778809%, 9.799194%)" d="M 52.472656 37.410156 C 52.472656 45.640625 45.765625 52.3125 37.496094 52.3125 C 29.234375 52.3125 22.527344 45.640625 22.527344 37.410156 C 22.527344 29.179688 29.234375 22.503906 37.496094 22.503906 C 45.765625 22.507812 52.472656 29.179688 52.472656 37.410156 Z M 52.472656 37.410156 " fill-opacity="1" fill-rule="nonzero"/><path fill="rgb(86.268616%, 54.899597%, 11.759949%)" d="M 52.394531 38.933594 L 39.175781 28.914062 L 37.832031 28.914062 L 37.832031 30.683594 L 35.726562 28.914062 L 34.382812 28.914062 L 34.382812 30.738281 L 32.601562 30.738281 L 32.601562 32.234375 L 34.382812 33.828125 L 34.382812 42.796875 L 32.601562 42.796875 L 32.601562 44.289062 L 38.640625 52.265625 C 45.871094 51.722656 51.664062 46.070312 52.394531 38.933594 Z M 52.394531 38.933594 " fill-opacity="1" fill-rule="nonzero"/><path fill="rgb(98.039246%, 86.268616%, 7.839966%)" d="M 37.496094 50.589844 C 30.195312 50.589844 24.261719 44.679688 24.261719 37.414062 C 24.261719 30.148438 30.199219 24.230469 37.496094 24.230469 C 44.804688 24.230469 50.738281 30.148438 50.738281 37.414062 C 50.738281 44.679688 44.804688 50.589844 37.496094 50.589844 Z M 37.496094 25.949219 C 31.152344 25.949219 25.980469 31.089844 25.980469 37.410156 C 25.980469 43.730469 31.15625 48.875 37.496094 48.875 C 43.847656 48.875 49.011719 43.730469 49.011719 37.410156 C 49.011719 31.089844 43.847656 25.949219 37.496094 25.949219 Z M 37.496094 25.949219 " fill-opacity="1" fill-rule="nonzero"/><path fill="rgb(98.039246%, 86.268616%, 7.839966%)" d="M 42.394531 40.660156 C 42.394531 39.089844 41.765625 37.988281 40.496094 37.363281 C 41.625 36.636719 42.1875 35.605469 42.1875 34.273438 C 42.1875 33.144531 41.839844 32.277344 41.132812 31.660156 C 40.636719 31.226562 39.984375 30.941406 39.175781 30.816406 L 39.175781 28.914062 L 37.832031 28.914062 L 37.832031 30.738281 L 35.726562 30.738281 L 35.726562 28.914062 L 34.382812 28.914062 L 34.382812 30.738281 L 32.601562 30.738281 L 32.601562 32.234375 L 34.382812 32.234375 L 34.382812 42.796875 L 32.601562 42.796875 L 32.601562 44.292969 L 34.382812 44.292969 L 34.382812 45.910156 L 35.726562 45.910156 L 35.726562 44.292969 L 37.832031 44.292969 L 37.832031 45.910156 L 39.175781 45.910156 L 39.175781 44.257812 C 41.324219 44.054688 42.394531 42.859375 42.394531 40.660156 Z M 36.25 32.234375 L 38.503906 32.234375 C 39.660156 32.234375 40.234375 32.890625 40.234375 34.207031 C 40.234375 35.542969 39.730469 36.207031 38.714844 36.207031 L 36.25 36.207031 Z M 38.867188 42.851562 L 36.25 42.851562 L 36.25 38.339844 L 38.566406 38.339844 C 39.367188 38.339844 39.921875 38.566406 40.21875 39.015625 C 40.460938 39.363281 40.582031 39.910156 40.582031 40.664062 C 40.582031 42.121094 40.011719 42.851562 38.867188 42.851562 Z M 38.867188 42.851562 " fill-opacity="1" fill-rule="nonzero"/></svg>